<?xml version="1.0" standalone="no"?>
<!DOCTYPE svg PUBLIC "-//W3C//DTD SVG 20010904//EN"
 "http://www.w3.org/TR/2001/REC-SVG-20010904/DTD/svg10.dtd">
<svg version="1.0" xmlns="http://www.w3.org/2000/svg"
 width="1024.000000pt" height="1024.000000pt" viewBox="0 0 1024.000000 1024.000000"
 preserveAspectRatio="xMidYMid meet">
<metadata>
Created by potrace 1.11, written by Peter Selinger 2001-2013
</metadata>
<g transform="translate(0.000000,1024.000000) scale(0.100000,-0.100000)"
fill="#000000" stroke="none">
<path d="M999 7676 c-2 -2 -24 -6 -49 -9 -282 -36 -591 -230 -753 -474 -142
-213 -199 -412 -192 -663 8 -298 114 -547 324 -759 164 -165 364 -270 604
-314 78 -15 309 -16 372 -3 208 45 368 116 505 224 79 62 188 181 243 265 124
191 176 358 182 587 10 311 -100 591 -318 813 -162 165 -346 265 -572 314 -61
13 -336 28 -346 19z"/>
<path d="M3845 7670 c-22 -4 -58 -11 -80 -15 -58 -10 -180 -53 -257 -91 -219
-106 -403 -290 -513 -512 -35 -72 -81 -199 -91 -256 -18 -101 -22 -144 -19
-266 6 -300 116 -555 332 -767 162 -159 345 -255 574 -302 87 -18 329 -22 389
-7 14 3 41 9 60 12 54 9 205 63 268 96 189 100 344 244 449 418 69 113 115
236 149 395 13 61 12 281 -1 364 -65 402 -359 751 -741 879 -124 42 -197 54
-339 57 -77 1 -158 -1 -180 -5z"/>
<path d="M5760 6560 l0 -800 2240 0 2240 0 0 800 0 800 -2240 0 -2240 0 0
-800z"/>
<path d="M965 4790 c-22 -4 -58 -11 -80 -15 -62 -11 -182 -54 -265 -95 -265
-132 -472 -372 -565 -657 -43 -132 -55 -216 -50 -373 6 -226 65 -412 190 -600
48 -71 165 -197 235 -253 136 -107 327 -190 515 -224 54 -9 288 -9 349 0 321
51 616 250 783 527 76 126 131 279 151 415 13 94 7 315 -11 393 -54 228 -150
406 -303 558 -166 166 -357 269 -584 315 -65 13 -307 19 -365 9z"/>
<path d="M3879 4796 c-2 -2 -24 -7 -49 -10 -65 -9 -102 -16 -112 -22 -5 -3
-21 -8 -36 -10 -77 -14 -276 -116 -372 -192 -78 -61 -189 -182 -243 -266 -92
-143 -128 -231 -174 -430 -12 -55 -11 -287 2 -365 78 -472 441 -838 918 -925
75 -13 323 -15 372 -3 11 3 51 12 89 21 271 64 532 257 683 506 69 113 115
236 149 395 13 61 12 281 -1 364 -59 361 -301 681 -637 838 -139 66 -266 93
-449 98 -75 3 -138 3 -140 1z"/>
<path d="M5760 3680 l0 -800 2240 0 2240 0 0 800 0 800 -2240 0 -2240 0 0
-800z"/>
</g>
</svg>
